<svg xmlns="http://www.w3.org/2000/svg" xmlns:xlink="http://www.w3.org/1999/xlink" width="500" zoomAndPan="magnify" viewBox="0 0 375 374.999991" height="500" preserveAspectRatio="xMidYMid meet" version="1.0"><defs><g/><clipPath id="084c2525b0"><path d="M 45 134.304688 L 113 134.304688 L 113 240.78125 L 45 240.78125 Z M 45 134.304688 " clip-rule="nonzero"/></clipPath></defs><g fill="#1da838" fill-opacity="1"><g transform="translate(117.443464, 189.87778)"><g><path d="M 13.523438 0 C 22.027344 0 27.6875 -5.308594 27.6875 -13.289062 C 27.6875 -21.230469 21.988281 -26.535156 13.464844 -26.535156 L 2.710938 -26.535156 L 2.710938 0 Z M 8.820312 -21.054688 L 13.289062 -21.054688 C 18.613281 -21.054688 21.460938 -17.949219 21.460938 -13.210938 C 21.460938 -8.390625 18.457031 -5.484375 13.308594 -5.484375 L 8.820312 -5.484375 Z M 8.820312 -21.054688 "/></g></g></g><g fill="#1da838" fill-opacity="1"><g transform="translate(150.133657, 189.87778)"><g><path d="M 21.597656 0 L 21.597656 -5.503906 L 8.898438 -5.503906 L 8.898438 -10.886719 L 19.648438 -10.886719 L 19.648438 -16.039062 L 8.898438 -16.039062 L 8.898438 -21.054688 L 21.425781 -21.054688 L 21.425781 -26.535156 L 2.710938 -26.535156 L 2.710938 0 Z M 21.597656 0 "/></g></g></g><g fill="#1da838" fill-opacity="1"><g transform="translate(176.874375, 189.87778)"><g><path d="M 8.898438 0 L 8.898438 -16.742188 L 15.628906 -7.140625 L 17.191406 -7.140625 L 24 -16.683594 L 24 0 L 30.164062 0 L 30.164062 -26.535156 L 24.78125 -26.535156 L 16.410156 -15.140625 L 16.410156 -15.121094 L 8.15625 -26.535156 L 2.710938 -26.535156 L 2.710938 0 Z M 8.898438 0 "/></g></g></g><g fill="#1da838" fill-opacity="1"><g transform="translate(213.738945, 189.87778)"><g><path d="M 15.453125 0.605469 C 23.394531 0.605469 29.871094 -5.601562 29.871094 -13.308594 C 29.871094 -21.035156 23.394531 -27.199219 15.453125 -27.199219 C 7.472656 -27.199219 1.015625 -21.035156 1.015625 -13.308594 C 1.015625 -5.601562 7.472656 0.605469 15.453125 0.605469 Z M 15.453125 -5.054688 C 10.886719 -5.054688 7.199219 -8.507812 7.199219 -13.289062 C 7.199219 -18.085938 10.847656 -21.539062 15.453125 -21.539062 C 20.039062 -21.539062 23.707031 -18.085938 23.707031 -13.289062 C 23.707031 -8.507812 20.039062 -5.054688 15.453125 -5.054688 Z M 15.453125 -5.054688 "/></g></g></g><g fill="#1da838" fill-opacity="1"><g transform="translate(248.633363, 189.87778)"><g/></g></g><g fill="#1da838" fill-opacity="1"><g transform="translate(262.226734, 189.87778)"><g><path d="M 27.667969 0 L 16.78125 -26.554688 L 10.984375 -26.554688 L 0.0976562 0 L 6.632812 0 L 8.351562 -4.3125 L 19.414062 -4.3125 L 21.132812 0 Z M 13.675781 -17.734375 L 13.851562 -18.554688 L 13.910156 -18.554688 L 14.085938 -17.734375 L 17.386719 -9.445312 L 10.378906 -9.445312 Z M 13.675781 -17.734375 "/></g></g></g><g fill="#1da838" fill-opacity="1"><g transform="translate(293.980619, 189.87778)"><g><path d="M 8.898438 0 L 8.898438 -7.882812 L 14.28125 -7.882812 C 19.804688 -7.882812 23.765625 -11.628906 23.765625 -17.347656 C 23.765625 -22.671875 19.765625 -26.535156 14.203125 -26.535156 L 2.710938 -26.535156 L 2.710938 0 Z M 8.898438 -21.035156 L 13.949219 -21.035156 C 15.980469 -21.035156 17.578125 -19.199219 17.578125 -17.347656 C 17.578125 -15.101562 15.960938 -13.367188 13.949219 -13.367188 L 8.898438 -13.367188 Z M 8.898438 -21.035156 "/></g></g></g><g fill="#1da838" fill-opacity="1"><g transform="translate(322.184318, 189.87778)"><g><path d="M 8.898438 0 L 8.898438 -26.535156 L 2.710938 -26.535156 L 2.710938 0 Z M 8.898438 0 "/></g></g></g><g fill="#e92026" fill-opacity="1"><g transform="translate(120.442491, 214.496433)"><g><path d="M 2.050781 0 L 2.050781 -3.226562 L 5.625 -3.226562 L 5.625 -4.082031 L 2.050781 -4.082031 L 2.050781 -6.785156 L 6.164062 -6.785156 L 6.164062 -7.699219 L 1.046875 -7.699219 L 1.046875 0 Z M 2.050781 0 "/></g></g></g><g fill="#e92026" fill-opacity="1"><g transform="translate(136.225183, 214.496433)"><g><path d="M 2.050781 0 L 2.050781 -2.890625 L 3.929688 -2.890625 C 4.011719 -2.890625 4.09375 -2.890625 4.175781 -2.898438 L 5.886719 0 L 7.039062 0 L 5.183594 -3.046875 C 6.199219 -3.316406 6.871094 -4.148438 6.871094 -5.28125 C 6.871094 -6.730469 5.808594 -7.699219 4.320312 -7.699219 L 1.046875 -7.699219 L 1.046875 0 Z M 2.050781 -6.796875 L 4.277344 -6.796875 C 5.183594 -6.796875 5.871094 -6.152344 5.871094 -5.273438 C 5.871094 -4.363281 5.195312 -3.753906 4.296875 -3.746094 L 2.050781 -3.746094 Z M 2.050781 -6.796875 "/></g></g></g><g fill="#e92026" fill-opacity="1"><g transform="translate(152.890128, 214.496433)"><g><path d="M 4.566406 0.152344 C 6.84375 0.152344 8.6875 -1.628906 8.6875 -3.855469 C 8.6875 -6.09375 6.84375 -7.867188 4.566406 -7.867188 C 2.296875 -7.867188 0.457031 -6.09375 0.457031 -3.855469 C 0.457031 -1.628906 2.296875 0.152344 4.566406 0.152344 Z M 4.566406 -0.777344 C 2.851562 -0.777344 1.460938 -2.105469 1.460938 -3.855469 C 1.460938 -5.609375 2.847656 -6.945312 4.566406 -6.945312 C 6.292969 -6.945312 7.6875 -5.609375 7.6875 -3.855469 C 7.6875 -2.105469 6.292969 -0.777344 4.566406 -0.777344 Z M 4.566406 -0.777344 "/></g></g></g><g fill="#e92026" fill-opacity="1"><g transform="translate(171.30827, 214.496433)"><g><path d="M 6.640625 -1.664062 L 6.632812 -1.664062 L 1.890625 -7.699219 L 1.046875 -7.699219 L 1.046875 0 L 2.050781 0 L 2.050781 -6.015625 L 6.785156 0 L 7.636719 0 L 7.636719 -7.699219 L 6.640625 -7.699219 Z M 6.640625 -1.664062 "/></g></g></g><g fill="#e92026" fill-opacity="1"><g transform="translate(189.26266, 214.496433)"><g><path d="M 3.710938 0 L 3.710938 -6.796875 L 6.152344 -6.796875 L 6.152344 -7.699219 L 0.277344 -7.699219 L 0.277344 -6.796875 L 2.710938 -6.796875 L 2.710938 0 Z M 3.710938 0 "/></g></g></g><g fill="#e92026" fill-opacity="1"><g transform="translate(204.971835, 214.496433)"><g><path d="M 4.328125 -2.675781 L 4.328125 -3.492188 L 0.667969 -3.492188 L 0.667969 -2.675781 Z M 4.328125 -2.675781 "/></g></g></g><g fill="#e92026" fill-opacity="1"><g transform="translate(219.244527, 214.496433)"><g><path d="M 6.214844 0 L 6.214844 -0.90625 L 2.050781 -0.90625 L 2.050781 -3.488281 L 5.625 -3.488281 L 5.625 -4.347656 L 2.050781 -4.347656 L 2.050781 -6.785156 L 6.164062 -6.785156 L 6.164062 -7.699219 L 1.046875 -7.699219 L 1.046875 0 Z M 6.214844 0 "/></g></g></g><g fill="#e92026" fill-opacity="1"><g transform="translate(235.140327, 214.496433)"><g><path d="M 6.640625 -1.664062 L 6.632812 -1.664062 L 1.890625 -7.699219 L 1.046875 -7.699219 L 1.046875 0 L 2.050781 0 L 2.050781 -6.015625 L 6.785156 0 L 7.636719 0 L 7.636719 -7.699219 L 6.640625 -7.699219 Z M 6.640625 -1.664062 "/></g></g></g><g fill="#e92026" fill-opacity="1"><g transform="translate(253.094717, 214.496433)"><g><path d="M 3.878906 0 C 6.304688 0 7.917969 -1.539062 7.917969 -3.855469 C 7.917969 -6.15625 6.292969 -7.699219 3.859375 -7.699219 L 1.046875 -7.699219 L 1.046875 0 Z M 2.03125 -6.804688 L 3.832031 -6.804688 C 5.746094 -6.804688 6.90625 -5.621094 6.90625 -3.832031 C 6.90625 -2.050781 5.738281 -0.90625 3.855469 -0.90625 L 2.03125 -0.90625 Z M 2.03125 -6.804688 "/></g></g></g><g clip-path="url(#084c2525b0)"><path fill="#e92026" d="M 79.691406 134.296875 C 79.382812 134.289062 79.066406 134.285156 78.75 134.285156 C 78.4375 134.285156 78.121094 134.289062 77.808594 134.296875 C 52.921875 134.933594 37.546875 161.921875 49.117188 184.058594 L 58.011719 201.085938 L 78.75 240.78125 L 86.046875 226.816406 C 83.0625 221.253906 80.074219 215.6875 77.085938 210.125 C 72.523438 201.625 67.964844 193.125 63.402344 184.632812 C 61.085938 180.316406 58.875 175.917969 58.269531 170.980469 C 56.8125 159.078125 66.921875 148.480469 78.667969 148.433594 C 90.1875 148.390625 99.535156 157.746094 99.535156 169.296875 C 99.535156 180.820312 90.226562 190.160156 78.75 190.160156 C 78.371094 190.160156 77.996094 190.152344 77.621094 190.132812 L 91.453125 216.476562 L 99.496094 201.085938 L 108.382812 184.058594 C 119.953125 161.921875 104.578125 134.933594 79.691406 134.296875 " fill-opacity="1" fill-rule="nonzero"/></g></svg>