<svg xmlns="http://www.w3.org/2000/svg" xmlns:xlink="http://www.w3.org/1999/xlink" width="500" zoomAndPan="magnify" viewBox="0 0 375 374.999991" height="500" preserveAspectRatio="xMidYMid meet" version="1.0"><defs><g/><clipPath id="099d05cbe3"><path d="M 161 87.050781 L 214 87.050781 L 214 161 L 161 161 Z M 161 87.050781 " clip-rule="nonzero"/></clipPath><clipPath id="ae3fda6355"><path d="M 141 134 L 234 134 L 234 198.800781 L 141 198.800781 Z M 141 134 " clip-rule="nonzero"/></clipPath></defs><g clip-path="url(#099d05cbe3)"><path fill="#007cc3" d="M 187.613281 87.070312 C 173.316406 87.070312 161.730469 98.621094 161.730469 112.871094 C 161.730469 122.9375 174.644531 145.554688 182.230469 157.96875 C 184.683594 161.992188 190.539062 161.992188 192.996094 157.96875 C 200.578125 145.554688 213.492188 122.9375 213.492188 112.871094 C 213.492188 98.621094 201.90625 87.070312 187.613281 87.070312 Z M 187.613281 128.820312 C 179.097656 128.820312 172.191406 121.941406 172.191406 113.449219 C 172.191406 104.960938 179.097656 98.078125 187.613281 98.078125 C 196.128906 98.078125 203.03125 104.960938 203.03125 113.449219 C 203.03125 121.941406 196.128906 128.820312 187.613281 128.820312 Z M 187.613281 128.820312 " fill-opacity="1" fill-rule="nonzero"/></g><path fill="#007cc3" d="M 196.109375 113.449219 C 196.109375 114.007812 196.054688 114.558594 195.945312 115.101562 C 195.835938 115.648438 195.675781 116.179688 195.460938 116.691406 C 195.25 117.207031 194.988281 117.695312 194.675781 118.15625 C 194.367188 118.621094 194.015625 119.046875 193.621094 119.441406 C 193.226562 119.835938 192.796875 120.183594 192.332031 120.496094 C 191.867188 120.804688 191.378906 121.0625 190.863281 121.277344 C 190.347656 121.488281 189.816406 121.652344 189.269531 121.757812 C 188.722656 121.867188 188.167969 121.921875 187.613281 121.921875 C 187.054688 121.921875 186.5 121.867188 185.953125 121.757812 C 185.40625 121.652344 184.875 121.488281 184.359375 121.277344 C 183.84375 121.0625 183.355469 120.804688 182.890625 120.496094 C 182.425781 120.183594 181.996094 119.835938 181.601562 119.441406 C 181.207031 119.046875 180.855469 118.621094 180.546875 118.15625 C 180.234375 117.695312 179.972656 117.207031 179.761719 116.691406 C 179.546875 116.179688 179.386719 115.648438 179.277344 115.101562 C 179.167969 114.558594 179.113281 114.007812 179.113281 113.449219 C 179.113281 112.894531 179.167969 112.34375 179.277344 111.796875 C 179.386719 111.25 179.546875 110.722656 179.761719 110.207031 C 179.972656 109.695312 180.234375 109.207031 180.546875 108.742188 C 180.855469 108.28125 181.207031 107.851562 181.601562 107.460938 C 181.996094 107.066406 182.425781 106.714844 182.890625 106.40625 C 183.355469 106.097656 183.84375 105.835938 184.359375 105.621094 C 184.875 105.410156 185.40625 105.25 185.953125 105.140625 C 186.5 105.03125 187.054688 104.976562 187.613281 104.976562 C 188.167969 104.976562 188.722656 105.03125 189.269531 105.140625 C 189.816406 105.25 190.347656 105.410156 190.863281 105.621094 C 191.378906 105.835938 191.867188 106.097656 192.332031 106.40625 C 192.796875 106.714844 193.226562 107.066406 193.621094 107.460938 C 194.015625 107.851562 194.367188 108.28125 194.675781 108.742188 C 194.988281 109.207031 195.25 109.695312 195.460938 110.207031 C 195.675781 110.722656 195.835938 111.25 195.945312 111.796875 C 196.054688 112.34375 196.109375 112.894531 196.109375 113.449219 Z M 196.109375 113.449219 " fill-opacity="1" fill-rule="nonzero"/><g clip-path="url(#ae3fda6355)"><path fill="#007cc3" d="M 233.640625 189.738281 L 225.910156 141.335938 C 225.300781 137.523438 222.003906 134.71875 218.128906 134.71875 L 209.558594 134.71875 C 208.605469 136.710938 207.59375 138.726562 206.554688 140.742188 L 212.394531 140.742188 C 215.539062 140.742188 218.21875 143.019531 218.710938 146.117188 L 220.554688 157.636719 L 217.710938 157.636719 C 211.394531 157.636719 205.375 155.730469 200.300781 152.207031 C 199.304688 153.953125 198.320312 155.648438 197.367188 157.269531 C 197.914062 157.640625 198.472656 157.996094 199.039062 158.339844 L 186.316406 173.070312 L 184.800781 170.75 C 181.984375 166.4375 177.214844 163.863281 172.058594 163.863281 L 164.5 163.863281 L 176.25 154.507812 C 175.289062 152.855469 174.3125 151.136719 173.328125 149.382812 L 155.140625 163.863281 L 153.679688 163.863281 L 156.515625 146.117188 C 157.011719 143.019531 159.6875 140.742188 162.832031 140.742188 L 168.671875 140.742188 C 167.632812 138.726562 166.621094 136.710938 165.667969 134.71875 L 157.097656 134.71875 C 153.222656 134.71875 149.929688 137.527344 149.316406 141.335938 L 141.589844 189.738281 C 140.828125 194.507812 144.523438 198.828125 149.371094 198.828125 L 225.855469 198.828125 C 230.699219 198.828125 234.398438 194.507812 233.640625 189.738281 Z M 204.453125 160.984375 C 208.621094 162.609375 213.101562 163.460938 217.707031 163.460938 L 221.480469 163.460938 L 223.402344 175.480469 L 191.933594 175.480469 Z M 156.554688 192.804688 C 152.617188 192.804688 149.617188 189.296875 150.234375 185.421875 L 152.75 169.683594 L 172.050781 169.683594 C 175.234375 169.683594 178.167969 171.269531 179.90625 173.925781 L 192.246094 192.804688 Z M 218.667969 192.804688 L 199.210938 192.804688 L 191.695312 181.300781 L 224.328125 181.300781 L 224.988281 185.421875 C 225.605469 189.296875 222.605469 192.804688 218.667969 192.804688 Z M 218.667969 192.804688 " fill-opacity="1" fill-rule="nonzero"/></g><g fill="#e92026" fill-opacity="1"><g transform="translate(66.340532, 249.027053)"><g><path d="M 16.300781 0 C 26.554688 0 33.378906 -6.398438 33.378906 -16.019531 C 33.378906 -25.589844 26.507812 -31.988281 16.230469 -31.988281 L 3.269531 -31.988281 L 3.269531 0 Z M 10.632812 -25.378906 L 16.019531 -25.378906 C 22.441406 -25.378906 25.875 -21.640625 25.875 -15.925781 C 25.875 -10.113281 22.25 -6.609375 16.042969 -6.609375 L 10.632812 -6.609375 Z M 10.632812 -25.378906 "/></g></g></g><g fill="#e92026" fill-opacity="1"><g transform="translate(100.934932, 249.027053)"><g><path d="M 26.039062 0 L 26.039062 -6.632812 L 10.726562 -6.632812 L 10.726562 -13.125 L 23.6875 -13.125 L 23.6875 -19.335938 L 10.726562 -19.335938 L 10.726562 -25.378906 L 25.828125 -25.378906 L 25.828125 -31.988281 L 3.269531 -31.988281 L 3.269531 0 Z M 26.039062 0 "/></g></g></g><g fill="#e92026" fill-opacity="1"><g transform="translate(128.356462, 249.027053)"><g><path d="M 10.726562 0 L 10.726562 -20.183594 L 18.839844 -8.609375 L 20.722656 -8.609375 L 28.933594 -20.109375 L 28.933594 0 L 36.363281 0 L 36.363281 -31.988281 L 29.871094 -31.988281 L 19.78125 -18.253906 L 19.78125 -18.230469 L 9.832031 -31.988281 L 3.269531 -31.988281 L 3.269531 0 Z M 10.726562 0 "/></g></g></g><g fill="#e92026" fill-opacity="1"><g transform="translate(167.98363, 249.027053)"><g><path d="M 18.628906 0.730469 C 28.203125 0.730469 36.011719 -6.75 36.011719 -16.042969 C 36.011719 -25.355469 28.203125 -32.789062 18.628906 -32.789062 C 9.007812 -32.789062 1.222656 -25.355469 1.222656 -16.042969 C 1.222656 -6.75 9.007812 0.730469 18.628906 0.730469 Z M 18.628906 -6.09375 C 13.125 -6.09375 8.679688 -10.253906 8.679688 -16.019531 C 8.679688 -21.804688 13.078125 -25.96875 18.628906 -25.96875 C 24.15625 -25.96875 28.578125 -21.804688 28.578125 -16.019531 C 28.578125 -10.253906 24.15625 -6.09375 18.628906 -6.09375 Z M 18.628906 -6.09375 "/></g></g></g><g fill="#e92026" fill-opacity="1"><g transform="translate(205.235519, 249.027053)"><g/></g></g><g fill="#e92026" fill-opacity="1"><g transform="translate(216.806182, 249.027053)"><g><path d="M 33.355469 0 L 20.230469 -32.011719 L 13.242188 -32.011719 L 0.117188 0 L 7.996094 0 L 10.066406 -5.199219 L 23.402344 -5.199219 L 25.472656 0 Z M 16.488281 -21.382812 L 16.699219 -22.371094 L 16.769531 -22.371094 L 16.984375 -21.382812 L 20.957031 -11.382812 L 12.511719 -11.382812 Z M 16.488281 -21.382812 "/></g></g></g><g fill="#e92026" fill-opacity="1"><g transform="translate(250.271737, 249.027053)"><g><path d="M 10.726562 0 L 10.726562 -9.503906 L 17.21875 -9.503906 C 23.875 -9.503906 28.648438 -14.019531 28.648438 -20.910156 C 28.648438 -27.332031 23.828125 -31.988281 17.125 -31.988281 L 3.269531 -31.988281 L 3.269531 0 Z M 10.726562 -25.355469 L 16.816406 -25.355469 C 19.265625 -25.355469 21.191406 -23.144531 21.191406 -20.910156 C 21.191406 -18.207031 19.242188 -16.113281 16.816406 -16.113281 L 10.726562 -16.113281 Z M 10.726562 -25.355469 "/></g></g></g><g fill="#e92026" fill-opacity="1"><g transform="translate(279.457087, 249.027053)"><g><path d="M 10.726562 0 L 10.726562 -9.503906 L 17.21875 -9.503906 C 23.875 -9.503906 28.648438 -14.019531 28.648438 -20.910156 C 28.648438 -27.332031 23.828125 -31.988281 17.125 -31.988281 L 3.269531 -31.988281 L 3.269531 0 Z M 10.726562 -25.355469 L 16.816406 -25.355469 C 19.265625 -25.355469 21.191406 -23.144531 21.191406 -20.910156 C 21.191406 -18.207031 19.242188 -16.113281 16.816406 -16.113281 L 10.726562 -16.113281 Z M 10.726562 -25.355469 "/></g></g></g><g fill="#007cc3" fill-opacity="1"><g transform="translate(142.03008, 274.327717)"><g><path d="M 1.945312 0 L 1.945312 -3.058594 L 5.335938 -3.058594 L 5.335938 -3.871094 L 1.945312 -3.871094 L 1.945312 -6.4375 L 5.847656 -6.4375 L 5.847656 -7.300781 L 0.992188 -7.300781 L 0.992188 0 Z M 1.945312 0 "/></g></g></g><g fill="#007cc3" fill-opacity="1"><g transform="translate(151.645435, 274.327717)"><g><path d="M 1.945312 0 L 1.945312 -2.742188 L 3.726562 -2.742188 C 3.804688 -2.742188 3.882812 -2.742188 3.960938 -2.75 L 5.582031 0 L 6.679688 0 L 4.917969 -2.886719 C 5.878906 -3.144531 6.515625 -3.933594 6.515625 -5.007812 C 6.515625 -6.382812 5.507812 -7.300781 4.097656 -7.300781 L 0.992188 -7.300781 L 0.992188 0 Z M 1.945312 -6.449219 L 4.058594 -6.449219 C 4.917969 -6.449219 5.566406 -5.835938 5.566406 -5.003906 C 5.566406 -4.140625 4.929688 -3.558594 4.074219 -3.554688 L 1.945312 -3.554688 Z M 1.945312 -6.449219 "/></g></g></g><g fill="#007cc3" fill-opacity="1"><g transform="translate(162.098085, 274.327717)"><g><path d="M 4.332031 0.144531 C 6.492188 0.144531 8.242188 -1.546875 8.242188 -3.65625 C 8.242188 -5.78125 6.492188 -7.460938 4.332031 -7.460938 C 2.179688 -7.460938 0.433594 -5.78125 0.433594 -3.65625 C 0.433594 -1.546875 2.179688 0.144531 4.332031 0.144531 Z M 4.332031 -0.734375 C 2.707031 -0.734375 1.386719 -1.996094 1.386719 -3.65625 C 1.386719 -5.320312 2.699219 -6.585938 4.332031 -6.585938 C 5.96875 -6.585938 7.289062 -5.320312 7.289062 -3.65625 C 7.289062 -1.996094 5.96875 -0.734375 4.332031 -0.734375 Z M 4.332031 -0.734375 "/></g></g></g><g fill="#007cc3" fill-opacity="1"><g transform="translate(174.214589, 274.327717)"><g><path d="M 6.296875 -1.578125 L 6.292969 -1.578125 L 1.792969 -7.300781 L 0.992188 -7.300781 L 0.992188 0 L 1.945312 0 L 1.945312 -5.707031 L 6.4375 0 L 7.242188 0 L 7.242188 -7.300781 L 6.296875 -7.300781 Z M 6.296875 -1.578125 "/></g></g></g><g fill="#007cc3" fill-opacity="1"><g transform="translate(185.890978, 274.327717)"><g><path d="M 3.523438 0 L 3.523438 -6.449219 L 5.835938 -6.449219 L 5.835938 -7.300781 L 0.261719 -7.300781 L 0.261719 -6.449219 L 2.570312 -6.449219 L 2.570312 0 Z M 3.523438 0 "/></g></g></g><g fill="#007cc3" fill-opacity="1"><g transform="translate(195.436557, 274.327717)"><g><path d="M 4.105469 -2.539062 L 4.105469 -3.3125 L 0.632812 -3.3125 L 0.632812 -2.539062 Z M 4.105469 -2.539062 "/></g></g></g><g fill="#007cc3" fill-opacity="1"><g transform="translate(203.618848, 274.327717)"><g><path d="M 5.894531 0 L 5.894531 -0.859375 L 1.945312 -0.859375 L 1.945312 -3.308594 L 5.335938 -3.308594 L 5.335938 -4.125 L 1.945312 -4.125 L 1.945312 -6.4375 L 5.847656 -6.4375 L 5.847656 -7.300781 L 0.992188 -7.300781 L 0.992188 0 Z M 5.894531 0 "/></g></g></g><g fill="#007cc3" fill-opacity="1"><g transform="translate(213.341547, 274.327717)"><g><path d="M 6.296875 -1.578125 L 6.292969 -1.578125 L 1.792969 -7.300781 L 0.992188 -7.300781 L 0.992188 0 L 1.945312 0 L 1.945312 -5.707031 L 6.4375 0 L 7.242188 0 L 7.242188 -7.300781 L 6.296875 -7.300781 Z M 6.296875 -1.578125 "/></g></g></g><g fill="#007cc3" fill-opacity="1"><g transform="translate(225.017936, 274.327717)"><g><path d="M 3.675781 0 C 5.980469 0 7.511719 -1.460938 7.511719 -3.65625 C 7.511719 -5.839844 5.96875 -7.300781 3.660156 -7.300781 L 0.992188 -7.300781 L 0.992188 0 Z M 1.925781 -6.453125 L 3.632812 -6.453125 C 5.449219 -6.453125 6.550781 -5.332031 6.550781 -3.632812 C 6.550781 -1.945312 5.445312 -0.859375 3.65625 -0.859375 L 1.925781 -0.859375 Z M 1.925781 -6.453125 "/></g></g></g></svg>